<?xml version="1.0" standalone="no"?>
<!DOCTYPE svg PUBLIC "-//W3C//DTD SVG 20010904//EN"
 "http://www.w3.org/TR/2001/REC-SVG-20010904/DTD/svg10.dtd">
<svg version="1.0" xmlns="http://www.w3.org/2000/svg"
 width="1037.000000pt" height="1280.000000pt" viewBox="0 0 1037.000000 1280.000000"
 preserveAspectRatio="xMidYMid meet">
<metadata>
Created by potrace 1.15, written by Peter Selinger 2001-2017
</metadata>
<g transform="translate(0.000000,1280.000000) scale(0.100000,-0.100000)"
fill="#000000" stroke="none">
<path d="M3885 12739 c-256 -66 -316 -84 -458 -140 -467 -185 -789 -467 -972
-853 -97 -202 -145 -386 -171 -641 -31 -319 -4 -526 116 -885 98 -291 292
-719 457 -1005 303 -527 522 -1144 618 -1740 8 -55 18 -115 21 -132 l5 -33
-253 0 c-1058 0 -1908 -201 -2513 -594 -462 -301 -708 -691 -731 -1161 -22
-449 132 -878 454 -1265 l79 -96 -47 -83 c-57 -98 -112 -234 -142 -351 -19
-71 -22 -111 -21 -245 0 -139 4 -173 26 -260 86 -327 305 -546 682 -681 90
-32 90 -32 88 -66 -1 -18 -5 -94 -9 -169 -24 -453 145 -783 491 -956 132 -67
342 -124 508 -139 l79 -7 -9 -61 c-4 -34 -7 -104 -7 -156 7 -470 250 -779 729
-925 232 -70 364 -85 801 -92 l370 -6 177 93 177 92 143 -36 c555 -139 948
-172 1468 -122 l134 13 135 68 c726 365 1425 915 2014 1587 l59 68 750 2 750
3 47 120 c227 581 358 1133 421 1780 17 171 18 759 1 930 -62 629 -208 1194
-455 1755 l-63 145 -695 6 c-578 5 -707 8 -774 21 -160 32 -258 76 -347 155
-146 131 -264 276 -803 988 -424 561 -584 768 -669 870 -65 78 -108 124 -556
600 -206 220 -415 442 -464 495 -182 193 -535 569 -686 728 -85 91 -166 178
-179 195 -19 23 -35 76 -68 221 -24 105 -74 331 -113 501 -38 171 -106 470
-150 665 -44 195 -106 469 -137 608 -32 143 -61 252 -67 251 -6 0 -114 -27
-241 -60z m-80 -631 c6 -34 45 -214 95 -448 16 -74 48 -220 70 -325 77 -358
89 -416 202 -936 l23 -107 350 -373 c465 -496 754 -804 1205 -1283 206 -220
405 -433 442 -475 102 -117 509 -637 721 -921 318 -426 366 -490 488 -635 207
-249 395 -423 524 -488 186 -93 577 -141 1246 -154 l346 -6 62 -191 c268 -832
343 -1692 216 -2493 -44 -278 -104 -529 -207 -856 l-39 -127 -689 0 -688 0
-90 -113 c-280 -355 -642 -723 -1012 -1028 -277 -229 -619 -469 -943 -663
l-127 -76 -268 -1 c-222 0 -291 3 -412 21 -80 11 -158 24 -174 28 -25 7 12 26
305 157 536 238 881 394 886 399 5 5 -52 119 -120 241 -176 312 -370 546 -635
764 -29 24 -50 47 -45 51 4 4 141 69 303 146 162 76 296 139 298 140 2 1 -33
62 -78 135 -221 366 -464 643 -713 817 l-57 40 192 82 c106 45 194 83 196 85
6 6 -127 260 -182 347 -188 301 -425 533 -702 688 l-83 47 167 78 c92 43 169
79 171 81 5 5 -132 263 -189 355 -98 155 -192 273 -329 409 -163 162 -279 247
-466 340 -192 95 -340 142 -561 177 -167 27 -490 24 -654 -5 -227 -41 -450
-106 -713 -208 l-139 -54 -211 -1 c-117 -1 -298 -4 -404 -8 l-192 -6 234 -250
c198 -212 238 -250 262 -250 15 0 120 4 233 8 l205 9 200 78 c456 178 701 240
945 240 259 0 479 -66 694 -207 86 -57 274 -242 340 -336 27 -37 47 -70 45
-71 -2 -2 -164 -76 -359 -164 -195 -88 -562 -253 -815 -367 -253 -114 -500
-226 -549 -248 l-90 -40 -365 7 c-393 7 -521 19 -670 62 -427 124 -797 476
-930 884 -46 140 -64 257 -64 420 1 176 17 260 78 387 229 485 932 766 2155
863 276 21 535 30 923 30 l399 0 -6 113 c-3 61 -8 189 -12 282 -14 422 -85
792 -235 1232 -127 370 -294 719 -574 1198 -340 580 -436 854 -436 1237 0 549
258 941 778 1185 98 46 188 81 210 82 6 1 14 -14 18 -31z m410 -7797 c89 -27
173 -65 271 -121 112 -65 177 -114 288 -220 82 -79 213 -228 205 -234 -2 -1
-170 -76 -374 -165 -203 -90 -619 -274 -923 -408 l-554 -245 -691 5 c-719 5
-764 7 -980 52 -273 56 -448 161 -544 325 -45 76 -67 207 -52 303 10 63 70
203 105 245 l19 24 80 -35 c104 -46 217 -82 335 -106 249 -52 396 -63 857 -64
l408 -2 735 332 c404 183 740 333 745 333 6 0 37 -8 70 -19z m627 -1254 c122
-66 253 -164 361 -266 91 -87 204 -218 196 -225 -2 -2 -335 -150 -739 -331
-404 -180 -830 -370 -947 -422 l-211 -95 -559 5 c-565 5 -585 6 -788 46 -90
18 -219 62 -300 104 -206 107 -307 297 -265 498 l13 62 811 -5 811 -4 760 337
c418 186 765 338 770 338 6 1 45 -18 87 -42z m276 -1289 c139 -116 259 -243
380 -402 63 -81 112 -149 110 -151 -2 -2 -142 -66 -313 -143 -170 -77 -537
-242 -814 -367 l-504 -227 -306 5 c-380 7 -490 26 -669 114 -209 102 -306 258
-326 521 l-6 82 459 0 460 0 473 211 c260 117 581 260 713 320 132 59 244 108
248 108 5 1 47 -32 95 -71z"/>
</g>
</svg>
